# Blender v2.75 (sub 0) OBJ File: ''
# www.blender.org
mtllib monoLOD2.mtl
o Suzanne
v 0.466863 0.195096 0.766162
v 0.554358 0.044939 0.584279
v -0.554358 0.044939 0.584279
v 0.351562 -0.023438 0.617188
v -0.351562 -0.023438 0.617188
v -0.344117 0.115835 0.794743
v 0.344117 0.115835 0.794743
v 0.244472 0.183498 0.808057
v 0.156250 0.054688 0.648438
v -0.156250 0.054688 0.648438
v -0.069017 0.242460 0.662145
v 0.069017 0.242460 0.662145
v 0.294953 0.363987 0.804906
v 0.156250 0.437500 0.648438
v -0.156250 0.437500 0.648438
v 0.351562 0.515625 0.617188
v -0.351562 0.515625 0.617188
v -0.294953 0.363987 0.804906
v -0.432483 0.337392 0.795450
v 0.546875 0.437500 0.578125
v -0.546875 0.437500 0.578125
v 0.633637 0.242150 0.566680
v -0.633637 0.242150 0.566680
v -0.244472 0.183498 0.808057
v 0.432483 0.337392 0.795450
v -0.466863 0.195096 0.766162
v -0.001467 -0.207336 0.826010
v 0.000000 0.898438 -0.546875
v 0.000000 0.562500 -0.851562
v 0.000000 -0.382812 -0.351562
v -0.211986 -0.181074 0.523224
v 0.312500 -0.437500 0.570312
v -0.312500 -0.437500 0.570312
v -0.367954 -0.933107 0.527251
v 0.367954 -0.933107 0.527251
v 0.577659 -0.086733 0.540999
v -0.577659 -0.086733 0.540999
v 0.796420 0.147770 0.416197
v 0.834783 0.423254 0.589328
v -0.834783 0.423254 0.589328
v 0.312320 0.743779 0.728430
v -0.312320 0.743779 0.728430
v 0.156250 0.718750 0.757812
v -0.156250 0.718750 0.757812
v 0.000000 0.417278 0.744516
v -0.168324 0.354822 0.780177
v 0.168324 0.354822 0.780177
v 0.199938 0.122037 0.759906
v 0.573262 0.366861 0.686494
v -0.299898 0.484315 0.747732
v 0.299898 0.484315 0.747732
v 0.065732 -0.763472 0.733715
v -0.101239 -0.734900 0.732973
v 0.000000 -0.195312 0.750000
v 0.013330 -0.127397 0.771181
v 0.106928 -0.125218 0.790512
v -0.551921 -0.004566 0.630240
v 0.551921 -0.004566 0.630240
v -0.729015 0.388944 0.678526
v 0.729015 0.388944 0.678526
v -0.252177 0.653554 0.851777
v 0.252177 0.653554 0.851777
v 0.000000 0.329070 0.830150
v -0.091954 -0.119658 0.795711
v 0.138502 -0.240536 0.734220
v 0.271873 -0.884279 0.652179
v -0.271873 -0.884279 0.652179
v 0.000000 -0.978827 0.599910
v 0.000000 0.064815 0.732574
v 0.124825 -0.227263 0.812515
v -0.124825 -0.227263 0.812515
v -0.006478 -0.337020 0.757628
v -0.141610 -0.239658 0.729354
v -0.075612 -0.867559 0.698149
v 0.076210 -0.866982 0.699183
v 0.077005 -0.830369 0.631809
v -0.093093 -0.793310 0.646567
v -0.199938 0.122037 0.759906
v 0.284031 0.401474 0.776615
v -0.412084 0.390727 0.751669
v -0.573262 0.366861 0.686494
v -0.542530 0.213162 0.681296
v -0.460037 0.118218 0.705623
v -0.373759 0.086982 0.729414
v -0.284031 0.401474 0.776615
v -0.193599 0.296041 0.756508
v 0.238548 0.134071 0.765176
v 0.373759 0.086982 0.729414
v 0.460037 0.118218 0.705623
v 0.542530 0.213162 0.681296
v -0.551809 0.287858 0.675569
v 0.551809 0.287858 0.675569
v 0.412084 0.390727 0.751669
v 0.290104 0.404283 0.762302
v -0.290104 0.404283 0.762302
v -0.238548 0.134071 0.765176
v 0.193599 0.296041 0.756508
v 0.060471 0.425503 0.613644
v -0.086258 0.467536 0.620998
v -0.260583 0.709342 0.607090
v 0.260583 0.709342 0.607090
v 0.484375 0.554688 0.554688
v -0.484375 0.554688 0.554688
v -0.796420 0.147770 0.416197
v -0.544941 -0.037113 0.446349
v 0.544941 -0.037113 0.446349
v 0.000000 0.898438 0.289062
v 0.000000 0.984375 -0.078125
v 0.000000 -0.078116 -0.777908
v -0.040558 -0.796824 0.350120
v 0.000000 -0.487724 0.299484
v 0.862554 0.286815 -0.001710
v -0.862554 0.286815 -0.001710
v 0.460938 0.437500 -0.703125
v -0.460938 0.437500 -0.703125
v 0.734375 -0.046875 0.070312
v -0.734375 -0.046875 0.070312
v 0.593750 -0.125000 -0.164062
v -0.593750 -0.125000 -0.164062
v -0.742935 -0.096205 -0.329129
v -0.196827 -0.399766 0.275526
v -0.328407 -0.910050 0.403136
v -0.247368 -0.507892 0.386600
v 0.326463 -0.903319 0.403894
v 0.247368 -0.507892 0.386600
v 0.080748 -0.967617 0.448846
v 0.211986 -0.181074 0.523224
v 0.196827 -0.399766 0.275526
v 0.380830 -0.247214 -0.201982
v -0.380830 -0.247214 -0.201982
v 0.416138 -0.056314 -0.564653
v -0.416138 -0.056314 -0.564653
v 0.453125 0.867188 -0.382812
v -0.453125 0.867188 -0.382812
v -0.468039 0.900586 0.151109
v 0.468039 0.900586 0.151109
v 0.460938 0.523438 0.429688
v -0.460938 0.523438 0.429688
v 0.704473 0.404566 0.307972
v -0.704473 0.404566 0.307972
v -0.778416 0.571312 0.104449
v 0.778416 0.571312 0.104449
v 0.791542 0.618920 -0.144582
v -0.791542 0.618920 -0.144582
v -0.769748 0.574946 -0.390285
v 0.769748 0.574946 -0.390285
v -0.822768 0.331336 -0.409608
v 0.823799 0.290178 -0.197792
v -0.938002 0.419518 -0.243040
v -0.812789 -0.105257 -0.123260
v -1.044079 -0.075476 -0.314684
v -1.317000 0.071596 -0.487160
v -1.362991 0.312056 -0.443765
v -1.209045 0.489463 -0.397220
v 1.209045 0.489463 -0.397220
v 1.233696 0.245938 -0.434686
v 1.194671 0.100782 -0.438242
v 1.044079 -0.075476 -0.314684
v 0.812789 -0.105257 -0.123260
v 0.938002 0.419518 -0.243040
v 0.906236 0.006944 -0.314003
v -1.036152 0.006784 -0.405449
v -1.194671 0.100782 -0.438242
v -1.233696 0.245938 -0.434686
v 0.957319 0.302066 -0.322259
v 0.790561 0.101955 -0.306724
v 0.843353 -0.001119 -0.298544
v 0.711848 -0.001168 -0.175937
v -0.711848 -0.001168 -0.175937
v -0.823799 0.290178 -0.197792
v -0.843353 -0.001119 -0.298544
v -0.790561 0.101955 -0.306724
v 1.154985 0.352190 -0.458766
v -1.154985 0.352190 -0.458766
v 1.036152 0.006784 -0.405449
v -0.957319 0.302066 -0.322259
v -0.906236 0.006944 -0.314003
v 1.068135 0.235192 -0.383879
v -1.068135 0.235192 -0.383879
v -1.226294 0.483535 -0.548223
v 1.226294 0.483535 -0.548223
v 1.362991 0.312056 -0.443765
v 1.317000 0.071596 -0.487160
v 1.039062 -0.085938 -0.492188
v -1.039062 -0.085938 -0.492188
v 0.742935 -0.096205 -0.329129
v 0.822768 0.331336 -0.409608
vn 0.342400 -0.732200 0.588700
vn -0.342400 -0.732200 0.588700
vn 0.261400 -0.724000 0.638300
vn 0.319000 0.738700 0.593800
vn 0.665300 -0.356900 0.655700
vn -0.624500 0.329100 0.708300
vn -0.224700 0.790000 0.570400
vn -0.319000 0.738700 0.593800
vn 0.751200 0.052300 0.658000
vn -0.774200 0.311600 0.551000
vn 0.760300 0.050400 0.647600
vn 0.299400 -0.122400 0.946200
vn -0.299400 -0.122400 0.946200
vn 0.102800 -0.044200 0.993700
vn -0.102800 -0.044200 0.993700
vn 0.068300 -0.001700 0.997700
vn -0.068300 -0.001700 0.997700
vn -0.201800 -0.849600 0.487300
vn -0.750000 0.052600 0.659400
vn 0.301600 -0.846700 0.438400
vn -0.294500 -0.841600 0.452700
vn 0.711700 -0.416500 0.565700
vn 0.732000 -0.382900 0.563600
vn -0.732000 -0.382900 0.563600
vn -0.711700 -0.416500 0.565700
vn 0.512400 0.504000 0.695300
vn -0.512400 0.504000 0.695300
vn -0.640400 0.380600 0.667100
vn 0.020300 0.811600 0.583800
vn 0.640400 0.380600 0.667100
vn 0.400900 -0.318400 0.859000
vn -0.400900 -0.318400 0.859000
vn 0.039000 -0.465900 0.884000
vn -0.039000 -0.465900 0.884000
vn 0.162300 -0.156900 0.974200
vn -0.162300 -0.156900 0.974200
vn 0.307000 -0.114000 0.944800
vn -0.306700 -0.115100 0.944800
vn 0.109700 -0.222700 0.968700
vn -0.109700 -0.222700 0.968700
vn 0.062900 -0.686100 0.724800
vn -0.332800 -0.020200 0.942800
vn -0.195600 -0.284200 0.938600
vn 0.081500 -0.042000 0.995800
vn 0.007000 0.389000 0.921200
vn 0.970500 0.199500 0.135700
vn 0.633500 0.354500 0.687800
vn 0.564600 -0.791900 0.232900
vn 0.111800 0.734700 0.669100
vn -0.137600 0.193700 0.971400
vn 0.020800 -0.467000 0.884000
vn -0.021600 -0.465700 0.884700
vn -0.828100 0.397200 0.395600
vn 0.933200 0.085100 0.349000
vn -0.914700 0.177900 0.362800
vn 0.296500 0.029400 0.954600
vn -0.995000 -0.081900 -0.056300
vn 0.978800 0.200400 -0.043200
vn -0.135700 -0.835100 0.533200
vn -0.143800 -0.826100 0.544900
vn 0.349600 -0.286100 0.892100
vn -0.349600 -0.286100 0.892100
vn 0.387500 0.497200 0.776300
vn -0.128100 -0.961500 -0.243100
vn -0.337900 -0.218400 0.915500
vn -0.816200 0.144300 0.559400
vn -0.045100 -0.518800 0.853700
vn -0.296500 0.029400 0.954600
vn -0.761500 0.468800 -0.447600
vn 0.759200 0.461500 -0.458900
vn 0.206500 -0.082700 -0.974900
vn 0.190500 0.962700 -0.192000
vn 0.449100 0.790800 -0.415900
vn 0.361600 0.904100 -0.227500
vn -0.345400 0.785800 -0.513100
vn -0.894600 0.141700 -0.423800
vn 0.459300 -0.711500 -0.531800
vn -0.459300 -0.711500 -0.531800
vn 0.203400 -0.653700 -0.728900
vn -0.104700 -0.980200 -0.167800
vn -0.022900 -0.512500 -0.858400
vn 0.029500 -0.484400 -0.874300
vn 0.121600 -0.992500 -0.008600
vn 0.375400 -0.792300 -0.480900
vn -0.179500 -0.004300 -0.983700
vn 0.916400 0.135300 -0.376700
vn -0.916400 0.135300 -0.376700
vn -0.901600 0.295400 -0.316000
vn 0.237600 -0.824100 -0.514200
vn -0.375400 -0.792300 -0.480900
vn 0.384400 -0.911700 -0.145300
vn -0.384400 -0.911700 -0.145300
vn 0.810800 -0.560200 0.169800
vn -0.810800 -0.560200 0.169800
vn 0.355900 -0.185300 -0.916000
vn -0.355900 -0.185300 -0.916000
vn 0.172900 0.977700 -0.118900
vn -0.062600 0.971800 0.227400
vn -0.172900 0.977700 -0.118900
vn 0.349200 0.594700 -0.724100
vn -0.349200 0.594700 -0.724100
vn 0.549500 0.415300 -0.724900
vn -0.549500 0.415300 -0.724900
vn 0.635500 0.764800 -0.105800
vn -0.635500 0.764800 -0.105800
vn 0.589000 0.485100 0.646300
vn -0.589000 0.485100 0.646300
vn 0.223500 0.571000 0.789900
vn -0.302100 0.909900 -0.284100
vn -0.255400 0.598600 0.759200
vn -0.116700 0.959400 0.256700
vn 0.179400 0.072900 -0.981100
vn 0.980200 0.194900 -0.034100
vn 0.240400 0.951300 -0.192800
vn 0.861300 0.425500 0.277900
vn -0.980200 0.194900 -0.034100
vn 0.986900 0.153400 -0.050200
vn -0.986900 0.153400 -0.050200
vn 0.650800 -0.727300 0.217900
vn -0.499200 -0.866400 -0.010700
vn -0.650800 -0.727300 0.217900
vn 0.283000 -0.916500 -0.282600
vn 0.545300 -0.252300 -0.799400
vn -0.557300 -0.270700 -0.784900
vn -0.283000 -0.916500 -0.282600
vn 0.245000 -0.170200 0.954500
vn 0.138900 -0.136800 0.980800
vn -0.245000 -0.170200 0.954500
vn 0.413000 0.685800 0.599200
vn -0.411400 0.260700 0.873400
vn -0.413000 0.685800 0.599200
vn 0.550100 -0.460100 0.696900
vn 0.502800 -0.180900 0.845200
vn -0.550100 -0.460100 0.696900
vn 0.339200 0.781600 0.523500
vn -0.701000 -0.686900 -0.191600
vn 0.200200 0.280900 0.938600
vn 0.910700 -0.383200 -0.154400
vn -0.910700 -0.383200 -0.154400
vn -0.339200 0.781600 0.523500
vn 0.783800 -0.408900 0.467400
vn 0.631500 0.377200 0.677500
vn -0.631500 0.377200 0.677500
vn -0.783800 -0.408900 0.467400
vn 0.277100 -0.021100 0.960600
vn -0.656300 -0.344700 0.671100
vn -0.912300 -0.364600 -0.186600
vn -0.212200 0.184800 0.959600
vn 0.540800 0.130400 0.831000
vn -0.540800 0.130400 0.831000
vn -0.277100 -0.021100 0.960600
vn 0.069100 -0.997600 -0.009800
vn 0.568400 -0.155900 0.807800
vn -0.568400 -0.155900 0.807800
vn -0.273300 -0.128300 0.953300
vn -0.297900 -0.103300 0.949000
vn -0.069100 -0.997600 -0.009800
vn -0.391700 -0.021000 -0.919800
vn 0.492200 -0.869700 0.037300
vn -0.492200 -0.869700 0.037300
vn -0.761800 0.644900 0.061700
vn 0.286500 0.955500 -0.070200
vn -0.403800 0.894000 -0.193900
vn 0.391700 -0.021000 -0.919800
vn 0.624000 0.021600 -0.781100
vn -0.624000 0.021600 -0.781100
vn -0.718600 0.682000 0.136000
vn 0.770300 -0.257600 0.583300
vn -0.770300 -0.257600 0.583300
vn 0.502400 -0.532400 0.681200
vn -0.502400 -0.532400 0.681200
vn -0.665300 -0.356900 0.655700
vn -0.592700 0.179500 0.785200
vn 0.592700 0.179500 0.785200
vn 0.624500 0.329100 0.708300
vn 0.224700 0.790000 0.570400
vn 0.774200 0.311600 0.551000
vn -0.760300 0.050400 0.647600
vn 0.201800 -0.849600 0.487300
vn -0.020300 0.811600 0.583800
vn -0.186000 0.189300 0.964100
vn 0.195800 0.228800 0.953600
vn -0.106500 -0.697800 0.708400
vn 0.198900 -0.292000 0.935500
vn 0.342600 -0.048600 0.938200
vn -0.940000 0.309600 0.143600
vn -0.981900 0.189300 0.011000
vn -0.600100 -0.764600 0.235100
vn -0.203000 0.179300 0.962600
vn 0.236400 0.207100 0.949300
vn 0.826100 0.397200 0.399700
vn 0.465800 -0.182900 0.865800
vn -0.465800 -0.182900 0.865800
vn -0.387500 0.497200 0.776300
vn 0.206300 0.286700 0.935600
vn -0.206300 0.286700 0.935600
vn -0.110800 0.346100 0.931600
vn 0.110800 0.346100 0.931600
vn 0.128100 -0.961500 -0.243100
vn 0.337900 -0.218400 0.915500
vn 0.816200 0.144300 0.559400
vn 0.045100 -0.518800 0.853700
vn 0.154300 -0.311200 0.937700
vn -0.154300 -0.311200 0.937700
vn 0.279200 0.941600 0.188200
vn -0.190500 0.962700 -0.192000
vn -0.449100 0.790800 -0.415900
vn 0.345400 0.785800 -0.513100
vn -0.361600 0.904100 -0.227500
vn 0.894600 0.141700 -0.423800
vn -0.203400 -0.653700 -0.728900
vn -0.322000 -0.111800 -0.940100
vn 0.192000 -0.937300 -0.290900
vn 0.945000 0.177000 -0.275100
vn -0.946500 0.179700 -0.268200
vn 0.931700 0.069000 -0.356700
vn -0.931700 0.069000 -0.356700
vn 0.901600 0.295400 -0.316000
vn -0.237600 -0.824100 -0.514200
vn 0.062600 0.971800 0.227400
vn 0.729200 0.664000 0.165400
vn -0.729200 0.664000 0.165400
vn 0.302100 0.909900 -0.284100
vn -0.165100 0.093700 -0.981800
vn -0.861300 0.425500 0.277900
vn 0.901600 0.110600 0.418200
vn -0.901600 0.110600 0.418200
vn 0.499200 -0.866400 -0.010700
vn 0.358700 -0.910800 0.204400
vn -0.358700 -0.910800 0.204400
vn -0.545300 -0.252300 -0.799400
vn 0.557300 -0.270700 -0.784900
vn -0.138900 -0.136800 0.980800
vn 0.411400 0.260700 0.873400
vn -0.278600 0.699400 0.658200
vn 0.278600 0.699400 0.658200
vn -0.502800 -0.180900 0.845200
vn 0.701000 -0.686900 -0.191600
vn -0.200200 0.280900 0.938600
vn 0.656300 -0.344700 0.671100
vn 0.912300 -0.364600 -0.186600
vn 0.212200 0.184800 0.959600
vn 0.273300 -0.128300 0.953300
vn 0.297900 -0.103300 0.949000
vn 0.247800 0.385100 0.889000
vn -0.247800 0.385100 0.889000
vn 0.761800 0.644900 0.061700
vn -0.286500 0.955500 -0.070200
vn 0.403800 0.894000 -0.193900
vn 0.089700 -0.126700 -0.987900
vn -0.089700 -0.126700 -0.987900
vn 0.718600 0.682000 0.136000
vn -0.261400 -0.724000 0.638300
vn 0.104100 -0.991400 -0.078900
vn -0.104100 -0.991400 -0.078900
usemtl None
s off
f 2//1 7//1 4//1
f 5//2 6//2 3//2
f 5//3 10//3 24//3 6//3
f 13//4 25//4 20//4 16//4
f 11//5 24//5 10//5
f 13//6 14//6 12//6
f 13//7 16//7 14//7
f 21//8 19//8 18//8 17//8
f 35//9 32//9 65//9 66//9
f 23//10 19//10 21//10
f 1//11 22//11 25//11
f 7//12 1//12 25//12
f 19//13 26//13 6//13
f 25//14 8//14 7//14
f 6//15 24//15 19//15
f 25//16 13//16 8//16
f 24//17 18//17 19//17
f 67//18 34//18 68//18
f 34//19 67//19 73//19 33//19
f 56//20 127//20 36//20 58//20
f 64//21 57//21 37//21 31//21
f 38//22 39//22 60//22 58//22
f 36//23 38//23 58//23
f 57//24 104//24 37//24
f 59//25 40//25 104//25 57//25
f 39//26 41//26 62//26 60//26
f 61//27 42//27 40//27 59//27
f 43//28 45//28 63//28 62//28
f 44//29 42//29 61//29
f 63//30 45//30 44//30 61//30
f 47//31 51//31 62//31 63//31
f 61//32 50//32 46//32 63//32
f 49//33 60//33 62//33 51//33
f 61//34 59//34 81//34 50//34
f 90//35 58//35 60//35 49//35
f 59//36 57//36 82//36 81//36
f 88//37 48//37 56//37 58//37
f 84//38 57//38 64//38 78//38
f 48//39 47//39 63//39 69//39
f 78//40 69//40 63//40 46//40
f 66//41 75//41 74//41 68//41
f 67//42 53//42 72//42 73//42
f 74//43 53//43 67//43
f 52//44 65//44 72//44 53//44
f 27//45 70//45 56//45 55//45
f 56//46 70//46 65//46
f 64//47 27//47 54//47 55//47
f 65//48 70//48 72//48
f 77//49 74//49 75//49 76//49
f 71//50 27//50 64//50
f 27//51 72//51 70//51
f 71//52 72//52 27//52
f 31//53 33//53 73//53
f 127//54 56//54 65//54
f 73//55 64//55 31//55
f 97//56 47//56 48//56 87//56
f 75//57 52//57 76//57
f 77//58 53//58 74//58
f 52//59 77//59 76//59
f 52//60 53//60 77//60
f 88//61 58//61 89//61
f 83//62 57//62 84//62
f 51//63 93//63 49//63
f 79//64 94//64 93//64
f 80//65 81//65 91//65
f 49//66 92//66 90//66
f 84//67 78//67 96//67
f 86//68 96//68 78//68 46//68
f 98//69 45//69 43//69 101//69
f 99//70 100//70 44//70 45//70
f 110//71 111//71 125//71 124//71
f 42//72 44//72 100//72
f 41//73 102//73 101//73
f 39//74 139//74 102//74
f 40//75 42//75 103//75
f 104//76 40//76 140//76
f 38//77 36//77 106//77
f 105//78 37//78 104//78
f 111//79 128//79 125//79
f 122//80 126//80 68//80 34//80
f 110//81 124//81 126//81
f 110//82 126//82 122//82
f 35//83 68//83 126//83
f 109//84 131//84 129//84 30//84
f 123//85 110//85 122//85
f 32//86 35//86 125//86
f 123//87 34//87 33//87
f 121//88 33//88 31//88
f 127//89 106//89 36//89
f 130//90 132//90 109//90 30//90
f 111//91 30//91 129//91 128//91
f 111//92 121//92 130//92 30//92
f 112//93 38//93 106//93 116//93
f 113//94 117//94 105//94 104//94
f 29//95 114//95 131//95 109//95
f 132//96 115//96 29//96 109//96
f 28//97 108//97 136//97 133//97
f 135//98 107//98 108//98
f 28//99 134//99 135//99 108//99
f 29//100 28//100 133//100 114//100
f 29//101 115//101 134//101 28//101
f 187//102 114//102 133//102 146//102
f 147//103 145//103 134//103 115//103
f 146//104 133//104 136//104 143//104
f 145//105 144//105 135//105 134//105
f 142//106 136//106 137//106 139//106
f 141//107 140//107 138//107 135//107
f 99//108 137//108 136//108 107//108
f 140//109 103//109 138//109
f 135//110 138//110 99//110 107//110
f 99//111 98//111 102//111 137//111
f 100//112 99//112 103//112
f 142//113 112//113 148//113 143//113
f 138//114 103//114 99//114
f 38//115 112//115 139//115
f 141//116 144//116 170//116 113//116
f 187//117 146//117 143//117 148//117
f 144//118 145//118 147//118 170//118
f 129//119 106//119 127//119 128//119
f 130//120 117//120 119//120
f 130//121 121//121 31//121 105//121
f 118//122 129//122 131//122 186//122
f 186//123 131//123 187//123
f 147//124 115//124 132//124
f 132//125 130//125 119//125 120//125
f 182//126 156//126 157//126 183//126
f 155//127 156//127 182//127
f 163//128 164//128 153//128 152//128
f 159//129 158//129 175//129 161//129
f 163//130 152//130 151//130
f 150//131 177//131 162//131 151//131
f 160//132 165//132 173//132 155//132
f 174//133 154//133 164//133
f 174//134 176//134 149//134 154//134
f 168//135 159//135 161//135 167//135
f 119//136 117//136 169//136
f 150//137 119//137 169//137
f 112//138 116//138 168//138
f 169//139 117//139 113//139
f 169//140 171//140 177//140 150//140
f 165//141 148//141 168//141 166//141
f 166//142 168//142 167//142
f 171//143 169//143 172//143
f 169//144 170//144 176//144 172//144
f 165//145 166//145 161//145 178//145
f 170//146 149//146 176//146
f 169//147 113//147 170//147
f 171//148 172//148 177//148
f 173//149 165//149 178//149
f 179//150 176//150 174//150
f 177//151 172//151 176//151 179//151
f 184//152 158//152 159//152 186//152
f 175//153 178//153 161//153
f 177//154 179//154 162//154
f 179//155 163//155 162//155
f 179//156 164//156 163//156
f 185//157 120//157 150//157 151//157
f 181//158 184//158 186//158 187//158
f 183//159 158//159 184//159
f 185//160 151//160 152//160
f 153//161 154//161 180//161
f 154//162 149//162 180//162
f 160//163 181//163 187//163
f 120//164 185//164 180//164 147//164
f 181//165 182//165 183//165
f 152//166 153//166 180//166
f 148//167 160//167 187//167
f 22//168 1//168 2//168
f 23//169 3//169 26//169
f 2//170 1//170 7//170
f 3//171 6//171 26//171
f 8//172 12//172 9//172
f 12//173 8//173 13//173
f 11//174 18//174 24//174
f 15//175 18//175 11//175
f 17//176 18//176 15//176
f 25//177 22//177 20//177
f 23//178 26//178 19//178
f 35//179 66//179 68//179
f 41//180 43//180 62//180
f 56//181 48//181 69//181
f 64//182 69//182 78//182
f 67//183 68//183 74//183
f 52//184 75//184 66//184
f 66//185 65//185 52//185
f 71//186 64//186 73//186
f 54//187 27//187 55//187
f 71//188 73//188 72//188
f 69//189 55//189 56//189
f 69//190 64//190 55//190
f 32//191 127//191 65//191
f 89//192 58//192 90//192
f 83//193 82//193 57//193
f 80//194 50//194 81//194
f 93//195 51//195 79//195
f 80//196 85//196 50//196
f 79//197 51//197 47//197
f 85//198 46//198 50//198
f 95//199 85//199 80//199
f 49//200 93//200 92//200
f 91//201 81//201 82//201
f 48//202 88//202 87//202
f 79//203 47//203 97//203
f 85//204 86//204 46//204
f 98//205 99//205 45//205
f 43//206 41//206 101//206
f 103//207 42//207 100//207
f 41//208 39//208 102//208
f 140//209 40//209 103//209
f 39//210 38//210 139//210
f 121//211 111//211 123//211
f 123//212 111//212 110//212
f 124//213 35//213 126//213
f 125//214 35//214 124//214
f 123//215 122//215 34//215
f 128//216 32//216 125//216
f 121//217 123//217 33//217
f 32//218 128//218 127//218
f 105//219 31//219 37//219
f 107//220 136//220 108//220
f 143//221 136//221 142//221
f 144//222 141//222 135//222
f 102//223 139//223 137//223
f 98//224 101//224 102//224
f 113//225 104//225 140//225
f 139//226 112//226 142//226
f 140//227 141//227 113//227
f 116//228 129//228 118//228
f 116//229 106//229 129//229
f 117//230 130//230 105//230
f 132//231 120//231 147//231
f 114//232 187//232 131//232
f 164//233 154//233 153//233
f 183//234 157//234 158//234
f 158//235 157//235 175//235
f 151//236 162//236 163//236
f 155//237 173//237 156//237
f 116//238 118//238 168//238
f 118//239 159//239 168//239
f 160//240 148//240 165//240
f 112//241 168//241 148//241
f 166//242 167//242 161//242
f 157//243 178//243 175//243
f 156//244 178//244 157//244
f 156//245 173//245 178//245
f 164//246 179//246 174//246
f 155//247 182//247 181//247
f 160//248 155//248 181//248
f 180//249 149//249 147//249
f 184//250 181//250 183//250
f 185//251 152//251 180//251
f 149//252 170//252 147//252
f 4//253 7//253 8//253 9//253
f 159//254 118//254 186//254
f 150//255 120//255 119//255
