# Blender v2.75 (sub 0) OBJ File: ''
# www.blender.org
mtllib esferaconvexa.mtl
o Sphere
v -0.382683 0.923880 0.000000
v -0.707107 0.707107 0.000000
v -0.923880 0.382683 0.000000
v -1.000000 -0.000000 0.000000
v -0.923880 -0.382684 0.000000
v -0.707107 -0.707107 0.000000
v -0.382683 -0.923880 0.000000
v -0.270598 0.923880 -0.270598
v -0.500000 0.707107 -0.500000
v -0.653282 0.382683 -0.653281
v -0.707107 -0.000000 -0.707107
v -0.653282 -0.382684 -0.653281
v -0.500000 -0.707107 -0.500000
v -0.270598 -0.923880 -0.270598
v -0.000000 0.923880 -0.382683
v -0.000000 0.707107 -0.707107
v -0.000000 0.382683 -0.923879
v -0.000000 -0.000000 -1.000000
v -0.000000 -0.382684 -0.923879
v -0.000000 -0.707107 -0.707107
v -0.000000 -0.923880 -0.382683
v -0.000000 1.000000 0.000000
v 0.270598 0.923880 -0.270598
v 0.500000 0.707107 -0.500000
v 0.653281 0.382683 -0.653281
v 0.707106 -0.000000 -0.707107
v 0.653281 -0.382684 -0.653281
v 0.500000 -0.707107 -0.500000
v 0.270598 -0.923880 -0.270598
v 0.382683 0.923880 -0.000000
v 0.707106 0.707107 -0.000000
v 0.923879 0.382683 -0.000000
v 1.000000 -0.000000 -0.000000
v 0.923879 -0.382684 -0.000000
v 0.707106 -0.707107 -0.000000
v 0.382683 -0.923880 -0.000000
v -0.000000 -1.000000 0.000000
v 0.270598 0.923880 0.270598
v 0.500000 0.707107 0.500000
v 0.653281 0.382683 0.653281
v 0.707106 -0.000000 0.707107
v 0.653281 -0.382684 0.653281
v 0.500000 -0.707107 0.500000
v 0.270598 -0.923880 0.270598
v -0.000000 0.923880 0.382683
v -0.000000 0.707107 0.707107
v -0.000000 0.382683 0.923879
v -0.000000 -0.000000 1.000000
v -0.000000 -0.382684 0.923879
v -0.000000 -0.707107 0.707107
v -0.000000 -0.923880 0.382683
v -0.270598 0.923880 0.270598
v -0.500000 0.707107 0.500000
v -0.653281 0.382683 0.653281
v -0.707107 -0.000000 0.707107
v -0.653281 -0.382684 0.653281
v -0.500000 -0.707107 0.500000
v -0.270598 -0.923880 0.270598
vn -0.908700 -0.180700 -0.376400
vn -0.786200 0.525300 -0.325600
vn -0.786200 -0.525300 -0.325600
vn -0.908700 0.180700 -0.376400
vn -0.541400 0.810300 -0.224300
vn -0.541400 -0.810300 -0.224300
vn -0.325600 -0.525300 -0.786200
vn -0.376400 0.180700 -0.908700
vn -0.224300 0.810300 -0.541400
vn -0.224300 -0.810300 -0.541400
vn -0.376400 -0.180700 -0.908700
vn -0.325600 0.525300 -0.786200
vn 0.224300 0.810300 -0.541400
vn 0.224300 -0.810300 -0.541400
vn 0.376400 -0.180700 -0.908700
vn 0.325600 0.525300 -0.786200
vn 0.325600 -0.525300 -0.786200
vn 0.376400 0.180700 -0.908700
vn 0.541400 -0.810300 -0.224300
vn 0.908700 -0.180700 -0.376400
vn 0.786200 0.525300 -0.325600
vn 0.786200 -0.525300 -0.325600
vn 0.908700 0.180700 -0.376400
vn 0.541400 0.810300 -0.224300
vn 0.786200 -0.525300 0.325600
vn 0.908700 0.180700 0.376400
vn 0.541400 0.810300 0.224300
vn 0.541400 -0.810300 0.224300
vn 0.908700 -0.180700 0.376400
vn 0.786200 0.525300 0.325600
vn 0.325600 -0.525300 0.786200
vn 0.376400 0.180700 0.908700
vn 0.224300 0.810300 0.541400
vn 0.224300 -0.810300 0.541400
vn 0.376400 -0.180700 0.908700
vn 0.325600 0.525300 0.786200
vn -0.224300 -0.810300 0.541400
vn -0.376400 -0.180700 0.908700
vn -0.325600 0.525300 0.786200
vn -0.325600 -0.525300 0.786200
vn -0.376400 0.180700 0.908700
vn -0.224300 0.810300 0.541400
vn -0.194500 0.977600 -0.080500
vn -0.194500 -0.977600 -0.080500
vn -0.080500 -0.977600 -0.194500
vn -0.080500 0.977600 -0.194500
vn 0.080500 0.977600 -0.194500
vn 0.080500 -0.977600 -0.194500
vn 0.194500 0.977600 -0.080500
vn 0.194500 -0.977600 -0.080500
vn 0.194500 0.977600 0.080500
vn 0.194500 -0.977600 0.080500
vn 0.080500 0.977600 0.194500
vn 0.080500 -0.977600 0.194500
vn -0.080500 0.977600 0.194500
vn -0.080500 -0.977600 0.194500
vn -0.908700 -0.180700 0.376400
vn -0.786200 0.525300 0.325600
vn -0.194500 0.977600 0.080500
vn -0.194500 -0.977600 0.080500
vn -0.786200 -0.525300 0.325600
vn -0.908700 0.180700 0.376400
vn -0.541400 0.810300 0.224300
vn -0.541400 -0.810300 0.224300
usemtl None
s off
f 5//1 4//1 11//1 12//1
f 3//2 2//2 9//2 10//2
f 6//3 5//3 12//3 13//3
f 4//4 3//4 10//4 11//4
f 2//5 1//5 8//5 9//5
f 7//6 6//6 13//6 14//6
f 13//7 12//7 19//7 20//7
f 11//8 10//8 17//8 18//8
f 9//9 8//9 15//9 16//9
f 14//10 13//10 20//10 21//10
f 12//11 11//11 18//11 19//11
f 10//12 9//12 16//12 17//12
f 16//13 15//13 23//13 24//13
f 21//14 20//14 28//14 29//14
f 19//15 18//15 26//15 27//15
f 17//16 16//16 24//16 25//16
f 20//17 19//17 27//17 28//17
f 18//18 17//18 25//18 26//18
f 29//19 28//19 35//19 36//19
f 27//20 26//20 33//20 34//20
f 25//21 24//21 31//21 32//21
f 28//22 27//22 34//22 35//22
f 26//23 25//23 32//23 33//23
f 24//24 23//24 30//24 31//24
f 35//25 34//25 42//25 43//25
f 33//26 32//26 40//26 41//26
f 31//27 30//27 38//27 39//27
f 36//28 35//28 43//28 44//28
f 34//29 33//29 41//29 42//29
f 32//30 31//30 39//30 40//30
f 43//31 42//31 49//31 50//31
f 41//32 40//32 47//32 48//32
f 39//33 38//33 45//33 46//33
f 44//34 43//34 50//34 51//34
f 42//35 41//35 48//35 49//35
f 40//36 39//36 46//36 47//36
f 51//37 50//37 57//37 58//37
f 49//38 48//38 55//38 56//38
f 47//39 46//39 53//39 54//39
f 50//40 49//40 56//40 57//40
f 48//41 47//41 54//41 55//41
f 46//42 45//42 52//42 53//42
f 1//43 22//43 8//43
f 37//44 7//44 14//44
f 37//45 14//45 21//45
f 8//46 22//46 15//46
f 15//47 22//47 23//47
f 37//48 21//48 29//48
f 23//49 22//49 30//49
f 37//50 29//50 36//50
f 30//51 22//51 38//51
f 37//52 36//52 44//52
f 38//53 22//53 45//53
f 37//54 44//54 51//54
f 45//55 22//55 52//55
f 37//56 51//56 58//56
f 56//57 55//57 4//57 5//57
f 54//58 53//58 2//58 3//58
f 52//59 22//59 1//59
f 37//60 58//60 7//60
f 57//61 56//61 5//61 6//61
f 55//62 54//62 3//62 4//62
f 53//63 52//63 1//63 2//63
f 58//64 57//64 6//64 7//64
