# Blender v2.75 (sub 0) OBJ File: ''
# www.blender.org
mtllib gema.mtl
o Gem
v 0.003139 -0.651752 -0.059097
v 0.003139 0.498248 -0.059097
v 0.003139 -0.251752 -0.601807
v 0.473139 0.148248 -0.873161
v 0.003139 0.323248 -0.948217
v 0.303139 0.498248 -0.578713
v 0.473139 -0.251752 -0.330452
v 0.943139 0.148248 -0.059097
v 0.773139 0.323248 -0.503657
v 0.603139 0.498248 -0.059097
v 0.473139 -0.251752 0.212257
v 0.473139 0.148248 0.754967
v 0.773139 0.323248 0.385462
v 0.303139 0.498248 0.460518
v 0.003139 -0.251752 0.483612
v -0.466861 0.148248 0.754967
v 0.003139 0.323248 0.830022
v -0.296861 0.498248 0.460518
v -0.466861 -0.251752 0.212257
v -0.936861 0.148248 -0.059097
v -0.766861 0.323248 0.385462
v -0.596861 0.498248 -0.059097
v -0.466861 -0.251752 -0.330452
v -0.466861 0.148248 -0.873161
v -0.766861 0.323248 -0.503657
v -0.296861 0.498248 -0.578713
vn 0.324100 -0.761500 -0.561300
vn 0.716700 -0.561400 -0.413800
vn 0.795900 -0.394200 -0.459500
vn 0.358600 0.696800 -0.621200
vn 0.370700 0.903800 -0.214000
vn 0.648100 -0.761500 -0.000000
vn 0.716700 -0.561400 0.413800
vn 0.795900 -0.394200 0.459500
vn 0.717300 0.696800 0.000000
vn 0.370700 0.903800 0.214000
vn 0.324100 -0.761500 0.561300
vn 0.000000 -0.561400 0.827500
vn 0.000000 -0.394200 0.919000
vn 0.358600 0.696800 0.621200
vn 0.000000 0.903800 0.428000
vn -0.324100 -0.761500 0.561300
vn -0.716700 -0.561400 0.413800
vn -0.795900 -0.394200 0.459500
vn -0.358600 0.696800 0.621200
vn -0.370700 0.903800 0.214000
vn -0.648100 -0.761500 0.000000
vn -0.716700 -0.561400 -0.413800
vn -0.795900 -0.394200 -0.459500
vn -0.717300 0.696800 0.000000
vn -0.370700 0.903800 -0.214000
vn -0.324100 -0.761500 -0.561300
vn 0.000000 -0.561400 -0.827500
vn 0.000000 -0.394200 -0.919000
vn -0.358600 0.696800 -0.621200
vn 0.000000 0.903800 -0.428000
vn 0.000000 -1.000000 0.000000
usemtl None
s off
f 7//1 1//1 3//1 4//1
f 7//2 4//2 8//2
f 8//3 4//3 9//3
f 9//4 4//4 5//4 6//4
f 9//5 6//5 10//5
f 11//6 1//6 7//6 8//6
f 11//7 8//7 12//7
f 12//8 8//8 13//8
f 13//9 8//9 9//9 10//9
f 13//10 10//10 14//10
f 15//11 1//11 11//11 12//11
f 15//12 12//12 16//12
f 16//13 12//13 17//13
f 17//14 12//14 13//14 14//14
f 17//15 14//15 18//15
f 19//16 1//16 15//16 16//16
f 19//17 16//17 20//17
f 20//18 16//18 21//18
f 21//19 16//19 17//19 18//19
f 21//20 18//20 22//20
f 23//21 1//21 19//21 20//21
f 23//22 20//22 24//22
f 24//23 20//23 25//23
f 25//24 20//24 21//24 22//24
f 25//25 22//25 26//25
f 3//26 1//26 23//26 24//26
f 3//27 24//27 4//27
f 4//28 24//28 5//28
f 5//29 24//29 25//29 26//29
f 5//30 26//30 6//30
f 6//31 2//31 26//31
f 2//31 6//31 10//31
f 2//31 10//31 14//31
f 2//31 14//31 18//31
f 2//31 18//31 22//31
f 2//31 22//31 26//31
